<?xml version="1.0"?>
<svg width="640" height="480" xmlns="http://www.w3.org/2000/svg" xmlns:svg="http://www.w3.org/2000/svg">
 <!-- Created with SVG-edit - https://github.com/SVG-Edit/svgedit-->
 <g class="layer">
  <title>Layer 1</title>
  <path d="m187.31599,336.80902q121.95143,83.754 243.61816,0m-217.18753,-165.41565c0,-12.94419 10.49333,-23.43752 23.43751,-23.43752c12.94418,0 23.43751,10.49333 23.43751,23.43752c0,12.94418 -10.49333,23.43749 -23.43751,23.43749c-12.94418,0 -23.43751,-10.49331 -23.43751,-23.43749m144.16667,0c0,-12.94419 10.49333,-23.43752 23.43751,-23.43752c12.94418,0 23.43749,10.49333 23.43749,23.43752c0,12.94418 -10.49331,23.43749 -23.43749,23.43749c-12.94415,0 -23.43751,-10.49331 -23.43751,-23.43749m-273.64583,67.29163l0,0c0,-124.26405 100.73593,-224.99999 224.99999,-224.99999c124.26408,0 224.99999,100.73593 224.99999,224.99999c0,124.26408 -100.73592,224.99999 -224.99999,224.99999c-124.26405,0 -224.99999,-100.73592 -224.99999,-224.99999zm0,0l0,0c0,-124.26405 100.73593,-224.99999 224.99999,-224.99999c124.26408,0 224.99999,100.73593 224.99999,224.99999c0,124.26408 -100.73592,224.99999 -224.99999,224.99999c-124.26405,0 -224.99999,-100.73592 -224.99999,-224.99999z" fill="#ffff56" id="svg_10" stroke="#000000" stroke-width="9"/>
  <ellipse cx="238.49997" cy="167.00001" fill="#000000" id="svg_12" rx="31" ry="57" stroke="#000000" stroke-width="5"/>
  <ellipse cx="385.49997" cy="168.00001" fill="#000000" id="svg_13" rx="31" ry="57" stroke="#000000" stroke-width="5"/>
  <path d="m411.49997,300c0.83333,5.33334 1.09843,6.17505 1.42934,7.08002c0.35544,0.97205 0.76283,1.99057 1.21649,3.04498c0.47003,1.09247 0.97505,2.20453 1.53151,3.315c1.12398,2.24301 1.75484,3.32294 2.39333,4.38535c0.63301,1.05331 1.29202,2.07697 1.97101,3.0705c0.6705,0.98114 1.35527,1.93286 2.061,2.84549c1.37408,1.77689 2.08806,2.60327 2.80666,3.40134c0.71194,0.79068 1.45227,1.55261 2.2365,2.27402c0.79321,0.72968 1.63493,1.439 2.55151,2.09399c1.9301,1.37927 3.04405,1.98447 4.20132,2.60001c1.19669,0.63651 2.45715,1.23685 3.76801,1.806c1.33719,0.5806 2.71397,1.12964 4.12799,1.62598c2.85651,1.00266 4.32193,1.40536 5.78001,1.79733c1.44307,0.38794 2.8736,0.73087 4.2795,1.035c1.36626,0.29556 2.69049,0.55466 3.96449,0.76501c2.3437,0.38699 3.40741,0.50586 4.392,0.60132c0.9086,0.08807 1.7477,0.14185 2.51851,0.15451c0.7054,0.0116 1.35123,-0.00128 1.9335,-0.0705c1.00935,-0.12 1.43451,-0.25406 1.808,-0.39468c0.33954,-0.12784 0.63483,-0.28152 0.8835,-0.45148c0.22714,-0.15524 0.41829,-0.32254 0.5685,-0.49652c0.26091,-0.30215 0.33943,-0.45856 0.40666,-0.59732c0.06105,-0.12601 0.10301,-0.24826 0.129,-0.3645c0.02444,-0.10934 0.03516,-0.21622 0.039,-0.31952c0.00751,-0.2012 0.00182,-0.30118 0.00401,-0.39999c0.00215,-0.09686 0.00932,-0.19064 0.01949,-0.28049l0.01517,-0.08484l0.02118,-0.07883l0.02817,-0.07184" fill="none" id="svg_22" stroke="#000000" stroke-width="9"/>
  <path d="m149.95731,305.05019c0.83333,5.33334 1.09843,6.17505 1.42934,7.08002c0.35544,0.97205 0.76283,1.99057 1.21649,3.04498c0.47003,1.09247 0.97505,2.20453 1.53151,3.315c1.12398,2.24301 1.75484,3.32294 2.39333,4.38535c0.63301,1.05331 1.29202,2.07697 1.97101,3.0705c0.6705,0.98114 1.35527,1.93286 2.061,2.84549c1.37408,1.77689 2.08806,2.60327 2.80666,3.40134c0.71194,0.79068 1.45227,1.55261 2.2365,2.27402c0.79321,0.72968 1.63493,1.439 2.55151,2.09399c1.9301,1.37927 3.04405,1.98447 4.20132,2.60001c1.19669,0.63651 2.45715,1.23685 3.76801,1.806c1.33719,0.5806 2.71397,1.12964 4.12799,1.62598c2.85651,1.00266 4.32193,1.40536 5.78001,1.79733c1.44307,0.38794 2.8736,0.73087 4.2795,1.035c1.36626,0.29556 2.69049,0.55466 3.96449,0.76501c1.274,0.21036 3.40741,0.50586 4.392,0.60132c0.9086,0.08807 1.7477,0.14185 2.51851,0.15451c0.7054,0.0116 1.35123,-0.00128 1.9335,-0.0705c1.00935,-0.12 1.43451,-0.25406 1.808,-0.39468c0.33954,-0.12784 0.63483,-0.28152 0.8835,-0.45148c0.22714,-0.15524 0.41829,-0.32254 0.5685,-0.49652c0.26091,-0.30215 0.33943,-0.45856 0.40666,-0.59732c0.06105,-0.12601 0.10301,-0.24826 0.129,-0.3645c0.02444,-0.10934 0.03516,-0.21622 0.039,-0.31952c0.00751,-0.2012 0.00182,-0.30118 0.00401,-0.39999c0.00215,-0.09686 0.00932,-0.19064 0.01949,-0.28049l0.01517,-0.08484l0.02118,-0.07883l0.02817,-0.07184" fill="none" id="svg_24" stroke="#000000" stroke-width="9" transform="rotate(-79.9393 178.5 326)"/>
 </g>
</svg>